PathFileType	4	(x/y/z)	A01_SLOW_T0027.trc
DataRate	CameraRate	NumFrames	NumMarkers	Units	OrigDataRate	OrigDataStartFrame	OrigNumFrames
240	240	6	48	mm	240	298	340
Frame#	Time	TOP_HEAD			R_AC			L_AC			R_ASIS			L_ASIS			R_PSIS			L_PSIS			SACRAL			L_IC			R_IC			L_GT			R_GT			R_LAT_KNEE			R_MED_KNEE			L_MED_KNEE			L_LAT_KNEE			R_TOE			L_TOE			R_1ST_MET			L_1ST_MET			L_5TH_MET			R_5TH_MET			R_LAT_ANK			R_MED_ANK			L_MED_ANK			L_LAT_ANK			L_HEEL_SUP			R_HEEL_SUP			L_HEEL_LAT			R_HEEL_LAT			L_HEEL_MED			R_HEEL_MED			R_LL_PROX_POST			R_LL_PROX_ANT			R_LL_DIST_ANT			R_LL_DIST_POST			R_THIGH_PROX_POST			R_THIGH_PROX_ANT			R_THIGH_DIST_ANT			R_THIGH_DIST_POST			L_PROS_PROX_ANT			L_PROS_PROX_POST			L_PROS_DIST_POST			L_PROS_DIST_ANT			L_THIGH_PROX_ANT			L_THIGH_PROX_POST			L_THIGH_DIST_POST			L_THIGH_DIST_ANT			
		X1	Y1	Z1	X2	Y2	Z2	X3	Y3	Z3	X4	Y4	Z4	X5	Y5	Z5	X6	Y6	Z6	X7	Y7	Z7	X8	Y8	Z8	X9	Y9	Z9	X10	Y10	Z10	X11	Y11	Z11	X12	Y12	Z12	X13	Y13	Z13	X14	Y14	Z14	X15	Y15	Z15	X16	Y16	Z16	X17	Y17	Z17	X18	Y18	Z18	X19	Y19	Z19	X20	Y20	Z20	X21	Y21	Z21	X22	Y22	Z22	X23	Y23	Z23	X24	Y24	Z24	X25	Y25	Z25	X26	Y26	Z26	X27	Y27	Z27	X28	Y28	Z28	X29	Y29	Z29	X30	Y30	Z30	X31	Y31	Z31	X32	Y32	Z32	X33	Y33	Z33	X34	Y34	Z34	X35	Y35	Z35	X36	Y36	Z36	X37	Y37	Z37	X38	Y38	Z38	X39	Y39	Z39	X40	Y40	Z40	X41	Y41	Z41	X42	Y42	Z42	X43	Y43	Z43	X44	Y44	Z44	X45	Y45	Z45	X46	Y46	Z46	X47	Y47	Z47	X48	Y48	Z48	

298	1.2412	713.31	1771.4	309.28	495.4	1586.6	572.25	423.63	1580.3	120.31	473.75	1111.5	557.63	484.73	1061.6	202.99	255.36	1116.7	424.48	270.28	1107.5	294.89	246.14	1082.7	356.85	446.34	1182.4	161.51	454.59	1215	562.14	434.65	978.42	159.43	397.74	1002.4	591.14	325.11	601.6	519.28	358.06	597.85	389.61	578.05	592.99	375.79	554.23	600.66	218.47	423.44	65.522	409.53	841.53	149.33	252.69	341.99	54.663	365.65	769.63	103.8	307.32	741.08	91.959	180.35	316.38	46.719	500.41	219.71	143.57	477.31	225.09	150.65	375.89	624.68	157.87	295.24	599	145.97	229.18	529.18	73.793	267.39	114.81	134.66	422.35	544.34	48.167	236.53	116.62	108.61	457.05	554.33	48.522	299.12	118.01	106.58	396.61	203.03	442.77	513.54	270.63	421.9	532.02	260.97	348.86	513.08	206.71	360.29	502.86	333.21	870.36	562.53	404.8	877.35	573.47	394.32	787.22	562.06	326.75	781.83	549.44	616.65	529.78	227.64	563.22	517.61	216.75	570.33	454.79	222.57	620.75	473.45	232.06	541.61	855.85	206.27	477.4	841.4	176.79	506.78	772.37	193.04	566.03	786.53	218.68
299	1.2453	717.54	1770.9	308.82	499.46	1586.2	571.94	427.8	1580	120.11	477.5	1111.2	557.45	489.24	1060.9	202.89	259.44	1116.3	423.82	274.6	1107	294.32	250.27	1082.3	356.25	450.69	1182.1	161.37	458.44	1214.7	561.88	439.19	977.69	159.29	401.16	1002.4	590.95	326.71	601.89	519.18	359.86	597.94	389.54	582.22	592.44	376.31	558.66	599.73	218.89	423.45	65.516	409.54	853.28	153.22	253.94	342.11	54.613	365.65	781.96	106.53	308.42	753.99	94.15	181.33	316.53	46.754	500.4	220.12	144.06	477.25	225.61	151.12	375.85	636.22	158.12	295.9	610.89	145.8	229.78	542.18	72.434	267.8	115.25	135.44	422.21	557.84	47.068	237	116.98	109.39	456.93	567.69	47.63	299.66	118.36	107.33	396.52	204.14	443.41	513.28	271.64	422.36	531.91	261.86	349.36	513.02	207.63	360.9	502.68	336.08	870.65	562.33	407.67	877.33	573.3	396.82	787.25	561.91	329.24	782.16	549.26	622.24	529.87	228.24	569.01	516.81	217.23	577.14	454.12	223.06	627.26	473.6	232.67	545.91	855.05	206.34	481.78	840.57	176.69	511.1	771.57	193.1	570.3	785.72	218.94
300	1.2495	721.78	1770.3	308.35	503.52	1585.9	571.62	431.97	1579.7	119.9	481.25	1111	557.27	493.76	1060.2	202.78	263.54	1116	423.16	278.92	1106.3	293.75	254.41	1081.8	355.65	455.05	1181.7	161.22	462.31	1214.3	561.61	443.73	976.92	159.14	404.6	1002.3	590.74	328.36	602.16	519.07	361.7	598	389.47	586.41	591.86	376.81	563.1	598.79	219.3	423.46	65.511	409.55	864.77	157.09	255.14	342.23	54.565	365.64	794.05	109.27	309.51	766.62	96.372	182.31	316.66	46.786	500.39	220.52	144.55	477.19	226.12	151.57	375.8	647.59	158.42	296.58	622.59	145.7	230.39	554.97	71.196	268.24	115.7	136.22	422.06	571.13	46.096	237.51	117.34	110.16	456.82	580.84	46.859	300.24	118.71	108.08	396.44	205.29	444.03	513.02	272.68	422.82	531.8	262.79	349.84	512.97	208.57	361.5	502.5	338.99	870.92	562.13	410.56	877.29	573.12	399.36	787.26	561.76	331.76	782.45	549.07	627.79	529.94	228.82	574.77	516.01	217.7	583.88	453.45	223.54	633.71	473.73	233.28	550.21	854.21	206.39	486.17	839.71	176.57	515.43	770.73	193.14	574.59	784.88	219.18
301	1.2537	726.03	1769.7	307.88	507.59	1585.4	571.3	436.15	1579.3	119.69	485.01	1110.7	557.07	498.28	1059.4	202.66	267.64	1115.6	422.49	283.25	1105.7	293.17	258.55	1081.3	355.05	459.42	1181.2	161.06	466.19	1214	561.34	448.27	976.1	158.99	408.05	1002.1	590.54	330.06	602.4	518.96	363.59	598.03	389.39	590.63	591.25	377.29	567.55	597.82	219.7	423.47	65.506	409.56	876	160.92	256.31	342.34	54.518	365.63	805.9	112.02	310.6	778.98	98.612	183.28	316.8	46.817	500.38	220.92	145.02	477.13	226.63	152.02	375.75	658.76	158.78	297.26	634.08	145.67	231.02	567.55	70.07	268.71	116.15	136.98	421.93	584.18	45.239	238.05	117.7	110.93	456.71	593.76	46.198	300.85	119.06	108.82	396.37	206.47	444.65	512.77	273.76	423.25	531.7	263.74	350.3	512.91	209.54	362.1	502.32	341.93	871.16	561.92	413.49	877.22	572.94	401.93	787.25	561.61	334.31	782.72	548.89	633.31	529.97	229.38	580.5	515.21	218.17	590.56	452.8	224.03	640.1	473.84	233.88	554.53	853.34	206.43	490.58	838.81	176.44	519.78	769.85	193.17	578.88	784.01	219.39
302	1.2579	730.29	1769.1	307.4	511.67	1584.9	570.98	440.33	1578.8	119.47	488.77	1110.4	556.86	502.8	1058.6	202.53	271.75	1115.1	421.8	287.57	1105	292.58	262.7	1080.8	354.44	463.8	1180.7	160.89	470.09	1213.5	561.07	452.82	975.25	158.83	411.52	1002	590.32	331.81	602.61	518.84	365.53	598.04	389.31	594.87	590.62	377.76	572.01	596.85	220.1	423.47	65.502	409.57	886.95	164.7	257.44	342.45	54.474	365.62	817.5	114.77	311.67	791.07	100.86	184.25	316.92	46.846	500.37	221.32	145.49	477.07	227.14	152.45	375.7	669.72	159.17	297.95	645.35	145.71	231.66	579.91	69.046	269.2	116.61	137.73	421.81	596.98	44.486	238.61	118.06	111.68	456.61	606.44	45.634	301.47	119.41	109.55	396.3	207.69	445.25	512.52	274.87	423.68	531.6	264.73	350.75	512.86	210.53	362.68	502.14	344.91	871.38	561.72	416.44	877.13	572.77	404.53	787.21	561.45	336.9	782.96	548.7	638.8	529.98	229.93	586.2	514.41	218.63	597.19	452.16	224.51	646.43	473.93	234.46	558.87	852.44	206.45	495.01	837.88	176.3	524.15	768.95	193.17	583.19	783.12	219.58
303	1.262	734.56	1768.4	306.9	515.76	1584.4	570.65	444.52	1578.3	119.24	492.54	1110	556.65	507.32	1057.7	202.39	275.87	1114.6	421.11	291.9	1104.2	291.98	266.86	1080.2	353.83	468.18	1180.2	160.72	474	1213.1	560.8	457.38	974.36	158.66	415.01	1001.8	590.1	333.61	602.8	518.72	367.52	598.01	389.22	599.15	589.96	378.21	576.5	595.86	220.5	423.47	65.498	409.57	897.64	168.42	258.54	342.55	54.432	365.61	828.84	117.49	312.73	802.86	103.09	185.2	317.05	46.873	500.37	221.72	145.94	477.02	227.64	152.88	375.65	680.48	159.6	298.64	656.4	145.79	232.3	592.03	68.113	269.7	117.06	138.46	421.69	609.53	43.826	239.19	118.42	112.43	456.5	618.88	45.158	302.11	119.76	110.28	396.24	208.96	445.85	512.26	276.02	424.08	531.5	265.74	351.18	512.8	211.55	363.26	501.96	347.92	871.56	561.51	419.42	877.02	572.59	407.16	787.15	561.3	339.52	783.17	548.5	644.25	529.96	230.47	591.87	513.61	219.08	603.75	451.52	224.98	652.69	474	235.04	563.23	851.52	206.47	499.46	836.92	176.15	528.55	768.03	193.17	587.53	782.21	219.74
